[img]http://img137.imageshack.us/img137/3678/3c8f8bf9b1a2993b9d8a17c.png[/img]
[code]
Plot:
Ex-special operative MacGruber is called back into action to take down his archenemy, Dieter Von Cunth, who's in possession of a nuclear warhead and bent on destroying Washington, D.C. 
 
http://www.imdb.com/title/tt1470023/

General
Complete name                    : MacGruber.2010.BRRip.XviD-TA.avi
Format                           : AVI
Format/Info                      : Audio Video Interleave
File size                        : 1.37 GiB
Duration                         : 1h 34mn
Overall bit rate                 : 2 072 Kbps
Writing library                  : VirtualDub build 32661/release

Video
ID                               : 0
Format                           : MPEG-4 Visual
Format profile                   : AdvancedSimple@L5
Format settings, BVOP            : Yes
Format settings, QPel            : No
Format settings, GMC             : No warppoints
Format settings, Matrix          : Default (H.263)
Muxing mode                      : Packed bitstream
Codec ID                         : XVID
Codec ID/Hint                    : XviD
Duration                         : 1h 34mn
Bit rate                         : 1 935 Kbps
Width                            : 720 pixels
Height                           : 288 pixels
Display aspect ratio             : 2.500
Frame rate                       : 23.976 fps
Resolution                       : 24 bits
Colorimetry                      : 4:2:0
Scan type                        : Progressive
Bits/(Pixel*Frame)               : 0.389
Stream size                      : 1.28 GiB (93%)
Writing library                  : XviD 1.2.1 (UTC 2008-12-04)

Audio
ID                               : 1
Format                           : MPEG Audio
Format version                   : Version 1
Format profile                   : Layer 3
Codec ID                         : 55
Codec ID/Hint                    : MP3
Duration                         : 1h 34mn
Bit rate mode                    : Constant
Bit rate                         : 128 Kbps
Channel(s)                       : 2 channels
Sampling rate                    : 44.1 KHz
Resolution                       : 16 bits
Stream size                      : 86.7 MiB (6%)
Alignment                        : Split accross interleaves
Interleave, duration             : 42 ms (1.00 video frame)
Interleave, preload duration     : 500 ms


Needs: We are looking for Audio Syncers and any other Exclusive CAM sources. Both Audio and Video
All deotting done by "dedots crew" find us on irc Efnet channel #ddcrew

Contact us: ta_rg@hushmail.com

Greetz: IMAGiNE - PrisM - KINGDOM - LU - SLUGGER - Relizlab - ELEKTRI4KA
and all those that contribute...
[/code]
Screens:
[img]http://img819.imageshack.us/img819/4656/96231198.png[/img]
[img]http://img844.imageshack.us/img844/2776/16384622.png[/img]
[img]http://img251.imageshack.us/img251/2848/56145272.png[/img]
[img]http://img843.imageshack.us/img843/2571/73332758.png[/img]